<?xml version="1.0" encoding="UTF-8"?>
<svg version="1.1" xmlns="http://www.w3.org/2000/svg" width="512" height="512">
<path d="M0 0 C0.6712088 0.00304138 1.3424176 0.00608276 2.03396606 0.00921631 C13.33328484 0.08454175 23.93980064 1.07307509 34.75 4.4375 C35.44577148 4.65180664 36.14154297 4.86611328 36.85839844 5.08691406 C63.17368698 13.48385007 86.48649346 31.76794091 100.75 55.4375 C101.09611328 56.00903809 101.44222656 56.58057617 101.79882812 57.16943359 C113.82323526 77.34851463 121.00017253 102.85307398 117.28125 126.40625 C114.65744295 136.52664864 108.09954105 144.36760338 99.75 150.4375 C89.75122583 155.98169209 78.5813265 157.28651963 67.4375 154.3125 C57.40256973 150.77559835 49.49107306 143.8453943 44.4375 134.5 C41.67936293 128.40862494 40.8286371 122.33055146 40.20922852 115.70727539 C39.01252411 103.79748325 35.12505957 94.63596121 26.171875 86.34375 C17.84514439 79.78980719 7.37908521 76.27728295 -3.25 77.4375 C-14.08774549 79.11187079 -24.16846093 83.6266219 -30.98046875 92.51953125 C-39.62073725 105.57298304 -40.64909416 121.34527778 -42.75897598 136.51877785 C-43.14191882 139.27251465 -43.5302805 142.02544319 -43.91989136 144.77824402 C-44.74306021 150.60149251 -45.55927442 156.42570498 -46.375 162.25 C-47.32818213 169.05004249 -48.28423341 175.84966611 -49.24575424 182.64853477 C-49.62815101 185.36146015 -50.00622149 188.07496553 -50.38406372 190.78852844 C-50.61668666 192.43822951 -50.8494949 194.08790446 -51.08251953 195.73754883 C-51.18641998 196.49225464 -51.29032043 197.24696045 -51.39736938 198.02453613 C-52.13619965 203.20989931 -52.13619965 203.20989931 -53.25 205.4375 C-52.58760315 205.43083817 -51.9252063 205.42417633 -51.24273682 205.41731262 C-44.29875583 205.35053071 -37.35486727 205.30552277 -30.41064453 205.27270508 C-27.8249948 205.25769288 -25.23937022 205.23727687 -22.65380859 205.21118164 C-18.92018396 205.17446455 -15.18689834 205.15769726 -11.453125 205.14453125 C-10.31200256 205.12904739 -9.17088013 205.11356354 -7.99517822 205.09761047 C4.60899543 205.09501465 16.30701395 207.5373805 25.78515625 216.32421875 C33.98660545 225.18735599 37.30486319 235.28427212 37.0625 247.28125 C35.86515755 259.3744087 30.02111316 268.24377862 20.8984375 275.8984375 C13.76871386 281.00591225 6.50167922 282.56684493 -2.15161133 282.55102539 C-3.16220108 282.55124443 -3.16220108 282.55124443 -4.19320679 282.5514679 C-6.40618174 282.55077472 -8.61907111 282.54301036 -10.83203125 282.53515625 C-12.37188165 282.53328995 -13.91173265 282.53186705 -15.45158386 282.53086853 C-19.49410659 282.52706002 -23.53659309 282.51724402 -27.57910156 282.50616455 C-31.70832835 282.49591455 -35.83756102 282.49136323 -39.96679688 282.48632812 C-48.0612145 282.4756202 -56.15560273 282.45856386 -64.25 282.4375 C-64.32920795 283.51900581 -64.32920795 283.51900581 -64.41001606 284.62236023 C-64.99180384 292.11221217 -65.86530789 299.52043219 -66.9206543 306.95703125 C-67.16976311 308.74026543 -67.16976311 308.74026543 -67.42390442 310.55952454 C-67.96984237 314.45694546 -68.52129942 318.35356538 -69.07421875 322.25 C-69.26635064 323.60666476 -69.45845155 324.9633339 -69.65052223 326.32000732 C-70.45145825 331.97400409 -71.25417394 337.62774263 -72.06198406 343.28076172 C-73.20850458 351.30412894 -74.34452925 359.32881374 -75.46538991 367.3558073 C-76.26049511 373.04366693 -77.06771772 378.72973101 -77.88354617 384.41465473 C-78.36747094 387.78882978 -78.84658414 391.16350056 -79.31265831 394.54019165 C-83.9407599 427.87446274 -92.52959512 454.81859494 -116.25 479.4375 C-116.83265625 480.08332031 -117.4153125 480.72914063 -118.015625 481.39453125 C-134.65998301 499.34185668 -162.15959561 511.28009002 -186.4753418 512.61450195 C-224.22350158 513.28038066 -255.0783099 504.78215949 -282.9375 478.1875 C-304.4692279 455.86416445 -315.5675848 427.19783575 -316.625 396.3125 C-316.17750537 384.50982916 -311.51398678 374.16002068 -302.9375 366.0625 C-293.19825103 357.93277278 -282.65410307 356.49255223 -270.25 357.4375 C-259.49043937 359.82699633 -250.43143969 366.32723531 -244.25 375.4375 C-240.67735361 381.89962738 -239.59401682 387.84392187 -238.9375 395.125 C-237.60054773 406.8252927 -234.49033412 417.82940433 -225.328125 425.98046875 C-216.18389021 432.39174615 -205.54591084 436.82137882 -194.25 435.4375 C-182.03417497 432.76671092 -172.58887221 427.68176466 -165.25 417.4375 C-159.99429696 408.54074914 -158.71495424 399.06524793 -157.3359375 389.02734375 C-157.0879918 387.31366736 -156.83855519 385.60020611 -156.58773804 383.88694763 C-156.06070147 380.26551571 -155.54390523 376.64283497 -155.03552246 373.01873779 C-154.2573597 367.4723602 -153.45530207 361.92961397 -152.64941406 356.38720703 C-151.1717999 346.20102073 -149.72048143 336.01120038 -148.27526855 325.82037354 C-147.59270261 321.01087524 -146.90754542 316.20174603 -146.22265625 311.39257812 C-144.89601161 302.07456265 -143.57205527 292.75616765 -142.25 283.4375 C-144.20836792 283.42348145 -144.20836792 283.42348145 -146.20629883 283.40917969 C-151.09514271 283.3690151 -155.98337468 283.30318461 -160.87182617 283.22998047 C-162.9791675 283.20192343 -165.08661107 283.18063374 -167.1940918 283.16650391 C-182.2097467 283.05983338 -195.26797596 282.60749772 -207.25 272.4375 C-215.9805669 263.43032107 -218.84468421 254.35287131 -218.72729492 242.05981445 C-218.49768607 235.89918264 -217.34874696 230.83082083 -214.25 225.4375 C-213.651875 224.385625 -213.05375 223.33375 -212.4375 222.25 C-204.55731177 212.11832941 -195.94616215 207.28333934 -183.25 205.4375 C-179.05631092 205.18829259 -174.87954614 205.20304925 -170.6796875 205.2421875 C-169.51744659 205.2450174 -168.35520569 205.24784729 -167.15774536 205.25076294 C-163.48005463 205.26187341 -159.80261595 205.286961 -156.125 205.3125 C-153.61719104 205.3225416 -151.10937823 205.33166538 -148.6015625 205.33984375 C-142.48429037 205.36178278 -136.3671632 205.39516835 -130.25 205.4375 C-130.19426567 204.41140373 -130.19426567 204.41140373 -130.1374054 203.36457825 C-129.4203625 192.33304312 -127.80633371 181.4471342 -126.23046875 170.51171875 C-125.9274671 168.39388354 -125.62459787 166.27602938 -125.32185364 164.15815735 C-124.68853879 159.73593868 -124.05175909 155.31423479 -123.4128418 150.89282227 C-122.60081933 145.26967581 -121.8003281 139.64495514 -121.00283337 134.01973248 C-120.38139764 129.64930992 -119.75228795 125.2800162 -119.12111855 120.91098976 C-118.82307405 118.8396595 -118.5276587 116.76794893 -118.23509789 114.69583702 C-114.03006122 84.97653493 -114.03006122 84.97653493 -108.3125 71.625 C-107.61833984 69.94470703 -107.61833984 69.94470703 -106.91015625 68.23046875 C-105.00707057 65.02880696 -103.65970283 63.88573444 -100.25 62.4375 C-99.39148438 62.45554688 -98.53296875 62.47359375 -97.6484375 62.4921875 C-95.14237676 62.69249636 -95.14237676 62.69249636 -93.4140625 60.8203125 C-89.644596 55.29048602 -88.96671372 52.25508757 -90.04296875 45.70703125 C-90.30059825 42.88282861 -89.59283792 41.22834847 -87.78515625 39.046875 C-87.27855469 38.51578125 -86.77195312 37.9846875 -86.25 37.4375 C-85.25806641 36.33148438 -85.25806641 36.33148438 -84.24609375 35.203125 C-62.45967205 12.08870066 -31.5258729 -0.25037882 0 0 Z " fill="#9CC4F9" transform="translate(345.25,-0.4375)"/>
<path d="M0 0 C1.02179855 0.00081573 1.02179855 0.00081573 2.0642395 0.00164795 C13.42223379 0.04322004 24.11075805 0.98597491 35 4.375 C35.69577148 4.58930664 36.39154297 4.80361328 37.10839844 5.02441406 C63.42368698 13.42135007 86.73649346 31.70544091 101 55.375 C101.34611328 55.94653809 101.69222656 56.51807617 102.04882812 57.10693359 C114.07323526 77.28601463 121.25017253 102.79057398 117.53125 126.34375 C114.90744295 136.46414864 108.34954105 144.30510338 100 150.375 C90.00122583 155.91919209 78.8313265 157.22401963 67.6875 154.25 C57.65256973 150.71309835 49.74107306 143.7828943 44.6875 134.4375 C41.92936293 128.34612494 41.0786371 122.26805146 40.45922852 115.64477539 C39.26252411 103.73498325 35.37505957 94.57346121 26.421875 86.28125 C18.09514439 79.72730719 7.62908521 76.21478295 -3 77.375 C-13.83774549 79.04937079 -23.91846093 83.5641219 -30.73046875 92.45703125 C-39.37073725 105.51048304 -40.39909416 121.28277778 -42.50897598 136.45627785 C-42.89191882 139.21001465 -43.2802805 141.96294319 -43.66989136 144.71574402 C-44.49306021 150.53899251 -45.30927442 156.36320498 -46.125 162.1875 C-47.07818213 168.98754249 -48.03423341 175.78716611 -48.99575424 182.58603477 C-49.37815101 185.29896015 -49.75622149 188.01246553 -50.13406372 190.72602844 C-50.36668666 192.37572951 -50.5994949 194.02540446 -50.83251953 195.67504883 C-50.93641998 196.42975464 -51.04032043 197.18446045 -51.14736938 197.96203613 C-51.88619965 203.14739931 -51.88619965 203.14739931 -53 205.375 C-52.33760315 205.36833817 -51.6752063 205.36167633 -50.99273682 205.35481262 C-44.04875583 205.28803071 -37.10486727 205.24302277 -30.16064453 205.21020508 C-27.5749948 205.19519288 -24.98937022 205.17477687 -22.40380859 205.14868164 C-18.67018396 205.11196455 -14.93689834 205.09519726 -11.203125 205.08203125 C-10.06200256 205.06654739 -8.92088013 205.05106354 -7.74517822 205.03511047 C4.85899543 205.03251465 16.55701395 207.4748805 26.03515625 216.26171875 C34.23660545 225.12485599 37.55486319 235.22177212 37.3125 247.21875 C36.11515755 259.3119087 30.27111316 268.18127862 21.1484375 275.8359375 C14.01871386 280.94341225 6.75167922 282.50434493 -1.90161133 282.48852539 C-2.91220108 282.48874443 -2.91220108 282.48874443 -3.94320679 282.4889679 C-6.15618174 282.48827472 -8.36907111 282.48051036 -10.58203125 282.47265625 C-12.12188165 282.47078995 -13.66173265 282.46936705 -15.20158386 282.46836853 C-19.24410659 282.46456002 -23.28659309 282.45474402 -27.32910156 282.44366455 C-31.45832835 282.43341455 -35.58756102 282.42886323 -39.71679688 282.42382812 C-47.8112145 282.4131202 -55.90560273 282.39606386 -64 282.375 C-64.07920795 283.45650581 -64.07920795 283.45650581 -64.16001606 284.55986023 C-64.74180384 292.04971217 -65.61530789 299.45793219 -66.6706543 306.89453125 C-66.91976311 308.67776543 -66.91976311 308.67776543 -67.17390442 310.49702454 C-67.71984237 314.39444546 -68.27129942 318.29106538 -68.82421875 322.1875 C-69.01635064 323.54416476 -69.20845155 324.9008339 -69.40052223 326.25750732 C-70.20145825 331.91150409 -71.00417394 337.56524263 -71.81198406 343.21826172 C-72.95850458 351.24162894 -74.09452925 359.26631374 -75.21538991 367.2933073 C-76.01049511 372.98116693 -76.81771772 378.66723101 -77.63354617 384.35215473 C-78.11747094 387.72632978 -78.59658414 391.10100056 -79.06265831 394.47769165 C-83.6907599 427.81196274 -92.27959512 454.75609494 -116 479.375 C-116.58265625 480.02082031 -117.1653125 480.66664063 -117.765625 481.33203125 C-134.40998301 499.27935668 -161.90959561 511.21759002 -186.2253418 512.55200195 C-223.97350158 513.21788066 -254.8283099 504.71965949 -282.6875 478.125 C-304.2192279 455.80166445 -315.3175848 427.13533575 -316.375 396.25 C-315.92750537 384.44732916 -311.26398678 374.09752068 -302.6875 366 C-292.94825103 357.87027278 -282.40410307 356.43005223 -270 357.375 C-259.24043937 359.76449633 -250.18143969 366.26473531 -244 375.375 C-240.42735361 381.83712738 -239.34401682 387.78142187 -238.6875 395.0625 C-237.35054773 406.7627927 -234.24033412 417.76690433 -225.078125 425.91796875 C-215.93389021 432.32924615 -205.29591084 436.75887882 -194 435.375 C-181.78417497 432.70421092 -172.33887221 427.61926466 -165 417.375 C-159.74429696 408.47824914 -158.46495424 399.00274793 -157.0859375 388.96484375 C-156.8379918 387.25116736 -156.58855519 385.53770611 -156.33773804 383.82444763 C-155.81070147 380.20301571 -155.29390523 376.58033497 -154.78552246 372.95623779 C-154.0073597 367.4098602 -153.20530207 361.86711397 -152.39941406 356.32470703 C-150.9217999 346.13852073 -149.47048143 335.94870038 -148.02526855 325.75787354 C-147.34270261 320.94837524 -146.65754542 316.13924603 -145.97265625 311.33007812 C-144.64601161 302.01206265 -143.32205527 292.69366765 -142 283.375 C-143.95836792 283.36098145 -143.95836792 283.36098145 -145.95629883 283.34667969 C-150.84514271 283.3065151 -155.73337468 283.24068461 -160.62182617 283.16748047 C-162.7291675 283.13942343 -164.83661107 283.11813374 -166.9440918 283.10400391 C-181.9597467 282.99733338 -195.01797596 282.54499772 -207 272.375 C-215.7305669 263.36782107 -218.59468421 254.29037131 -218.47729492 241.99731445 C-218.24768607 235.83668264 -217.09874696 230.76832083 -214 225.375 C-213.401875 224.323125 -212.80375 223.27125 -212.1875 222.1875 C-204.30731177 212.05582941 -195.69616215 207.22083934 -183 205.375 C-178.80631092 205.12579259 -174.62954614 205.14054925 -170.4296875 205.1796875 C-169.26744659 205.1825174 -168.10520569 205.18534729 -166.90774536 205.18826294 C-163.23005463 205.19937341 -159.55261595 205.224461 -155.875 205.25 C-153.36719104 205.2600416 -150.85937823 205.26916538 -148.3515625 205.27734375 C-142.23429037 205.29928278 -136.1171632 205.33266835 -130 205.375 C-129.94426567 204.34890373 -129.94426567 204.34890373 -129.8874054 203.30207825 C-129.1703625 192.27054312 -127.55633371 181.3846342 -125.98046875 170.44921875 C-125.6774671 168.33138354 -125.37459787 166.21352938 -125.07185364 164.09565735 C-124.43853879 159.67343868 -123.80175909 155.25173479 -123.1628418 150.83032227 C-122.35081933 145.20717581 -121.5503281 139.58245514 -120.75283337 133.95723248 C-120.13139764 129.58680992 -119.50228795 125.2175162 -118.87111855 120.84848976 C-118.57307405 118.7771595 -118.2776587 116.70544893 -117.98509789 114.63333702 C-113.78006122 84.91403493 -113.78006122 84.91403493 -108.0625 71.5625 C-107.36833984 69.88220703 -107.36833984 69.88220703 -106.66015625 68.16796875 C-104.78607565 65.01510374 -103.31887197 63.86639183 -100 62.375 C-96.78929947 62.45330977 -95.31196417 63.15578193 -92.6875 65 C-90.89872343 67.51753739 -90.36789116 69.11936362 -90.5390625 72.20703125 C-91.33833532 75.96632288 -92.98147753 79.35969853 -94.61328125 82.82421875 C-98.082339 91.70696099 -99.56698701 101.07926539 -100.82177734 110.48999023 C-101.05910332 112.20695351 -101.05910332 112.20695351 -101.30122375 113.95860291 C-101.64103791 116.42005431 -101.9781193 118.88188429 -102.31269455 121.34405327 C-102.84383367 125.24153561 -103.38558046 129.13740615 -103.93057251 133.03297424 C-105.47849084 144.10036038 -107.01697827 155.16896392 -108.52441406 166.24194336 C-109.44920255 173.03413869 -110.39605117 179.82299221 -111.35533524 186.61039925 C-111.71623869 189.19252911 -112.06941874 191.77575071 -112.41471481 194.36001396 C-112.89708068 197.96491333 -113.40522641 201.56529654 -113.91943359 205.16577148 C-114.05570663 206.23232971 -114.19197968 207.29888794 -114.3323822 208.39776611 C-115.00075408 212.90811462 -115.57055674 215.76570238 -118.22956848 219.53833008 C-121.57175082 221.75404475 -123.41685206 221.99020723 -127.4074707 221.97094727 C-128.68262039 221.9776796 -129.95777008 221.98441193 -131.27156067 221.99134827 C-132.28646041 221.97909053 -132.28646041 221.97909053 -133.32186317 221.96658516 C-135.45478325 221.94105916 -137.58578043 221.945996 -139.71879578 221.95848083 C-144.25024355 221.97919319 -148.7810919 221.95958803 -153.3125 221.9375 C-158.55649373 221.91633015 -163.7998629 221.91197043 -169.04384422 221.93800163 C-171.13355038 221.94133881 -173.22203714 221.92022133 -175.31159973 221.89759827 C-183.68906234 221.92094607 -189.49641224 222.48869937 -196.0234375 228.12109375 C-196.69246094 228.95833984 -196.69246094 228.95833984 -197.375 229.8125 C-197.83648437 230.36808594 -198.29796875 230.92367187 -198.7734375 231.49609375 C-202.47546013 237.1670265 -202.84719256 242.78278293 -202 249.375 C-200.07870299 255.4390937 -197.28749574 259.93355701 -191.94140625 263.4375 C-185.14262909 266.72061171 -178.94371582 266.65481768 -171.5234375 266.6484375 C-169.05468287 266.66871504 -166.5859329 266.6895656 -164.1171875 266.7109375 C-160.2349859 266.73359435 -156.35296796 266.75003306 -152.47070312 266.75585938 C-148.71711299 266.76535252 -144.96434446 266.7990786 -141.2109375 266.8359375 C-139.46555191 266.82836929 -139.46555191 266.82836929 -137.68490601 266.82064819 C-136.60343292 266.83391144 -135.52195984 266.84717468 -134.40771484 266.86083984 C-133.45762543 266.86368988 -132.50753601 266.86653992 -131.52865601 266.86947632 C-129 267.375 -129 267.375 -126.66201782 268.84463501 C-122.46449511 275.23521902 -125.5672947 285.63795367 -126.60473633 292.80444336 C-126.77548172 294.01864456 -126.94622711 295.23284576 -127.12214661 296.48384094 C-127.5886418 299.79037496 -128.06074505 303.0960056 -128.53592896 306.40129542 C-128.93344115 309.17157327 -129.32700207 311.94240667 -129.72058219 314.71324545 C-130.64992892 321.25553075 -131.58568423 327.79687686 -132.52563477 334.33764648 C-133.49178567 341.06143725 -134.44775277 347.78661904 -135.398588 354.5125913 C-136.21846784 360.3098697 -137.04438902 366.10626536 -137.87514132 371.90199572 C-138.36984603 375.3535698 -138.8624136 378.80541171 -139.34928322 382.25810051 C-139.89308895 386.11206884 -140.44952439 389.96415785 -141.00708008 393.81616211 C-141.16460754 394.944263 -141.32213501 396.07236389 -141.48443604 397.23464966 C-144.25308773 416.11465522 -151.80819186 431.14961478 -167.3984375 442.7734375 C-181.34241281 451.35756644 -196.56801506 453.59643111 -212.62890625 450.7265625 C-215.57057521 449.80998389 -218.23296784 448.72839599 -221 447.375 C-222.50240234 446.64603516 -222.50240234 446.64603516 -224.03515625 445.90234375 C-238.05562591 438.4046716 -247.27176778 426.99985756 -252.375 412 C-253.70947191 407.33772365 -254.23304129 403.02635613 -254.4375 398.1875 C-254.79256876 390.94086932 -256.56975972 385.183377 -261.48828125 379.72265625 C-267.54235887 374.32561031 -273.65086399 373.81484496 -281.4765625 373.9296875 C-287.48829532 374.68948522 -291.49869974 377.46147427 -295.3984375 382.00390625 C-301.20992739 390.2265462 -299.6790047 402.4757573 -298.57421875 412.07421875 C-294.63763285 432.48167326 -285.70498384 449.83766484 -272 465.375 C-271.46117187 465.99761719 -270.92234375 466.62023437 -270.3671875 467.26171875 C-254.13819781 484.75477548 -229.03120171 495.31693585 -205.484375 496.8125 C-177.92792622 497.79215552 -150.49199183 489.09488562 -130 470.375 C-128.83210938 469.32892578 -128.83210938 469.32892578 -127.640625 468.26171875 C-114.84678049 456.19579988 -105.24086459 439.43487385 -101 422.375 C-100.76968299 421.51877548 -100.53936598 420.66255096 -100.30206966 419.78038025 C-98.25491226 412.01344078 -96.9679766 404.26968834 -95.88696289 396.31640625 C-95.69657035 394.95160151 -95.5055576 393.58688317 -95.3139801 392.22224426 C-94.90627014 389.31071719 -94.5022881 386.39870708 -94.10115242 383.48626709 C-93.46596827 378.87907463 -92.81861609 374.27364119 -92.16905212 369.66845703 C-90.32492086 356.58265763 -88.49298117 343.49519918 -86.68188477 330.40478516 C-85.67866508 323.15438096 -84.66346594 315.90575829 -83.63500208 308.65889072 C-82.98617741 304.08224493 -82.35218892 299.50386656 -81.72908604 294.9236517 C-81.33862973 292.0801112 -80.93412623 289.23870306 -80.52557945 286.3977108 C-80.25023655 284.45354704 -79.99166094 282.50703172 -79.73358154 280.5605011 C-79.47941216 278.82391487 -79.47941216 278.82391487 -79.22010803 277.05224609 C-79.08020478 276.04648529 -78.94030153 275.04072449 -78.79615879 274.00448608 C-77.82799628 270.80692062 -76.60965043 269.42839259 -74 267.375 C-70.70101929 266.88293457 -70.70101929 266.88293457 -66.72802734 266.89257812 C-66.0022348 266.88866562 -65.27644226 266.88475311 -64.52865601 266.88072205 C-62.95506024 266.87475233 -61.38140922 266.87790764 -59.80784225 266.8891449 C-57.30922642 266.90643484 -54.8117651 266.89888232 -52.31314087 266.8848877 C-46.10343322 266.85525835 -39.8939461 266.86837494 -33.6842041 266.88006592 C-28.44222796 266.88830689 -23.20075592 266.88016507 -17.95885086 266.85093689 C-15.51149467 266.84389546 -13.06505148 266.86045885 -10.61776733 266.87805176 C2.63170275 266.88938454 2.63170275 266.88938454 13.92398071 260.59558105 C19.66297436 254.33017313 20.46722666 249.30428942 20.30078125 240.859375 C19.89988787 236.2152595 19.10013031 232.90980466 16 229.375 C9.9799172 224.43070817 5.21165885 222.25570424 -2.61108398 222.2331543 C-3.27809326 222.22967987 -3.94510254 222.22620544 -4.63232422 222.22262573 C-6.07935696 222.21527997 -7.52640088 222.2099283 -8.9734478 222.20633507 C-11.26421602 222.199162 -13.55477099 222.18349027 -15.84547424 222.16499329 C-22.35797239 222.11255621 -28.8703518 222.0645304 -35.38305664 222.04907227 C-39.36787135 222.03899422 -43.35214653 222.00967837 -47.33674812 221.96775246 C-48.85454288 221.95543805 -50.37241381 221.95032202 -51.89025688 221.95255089 C-54.01393174 221.95490251 -56.13605615 221.93275336 -58.25952148 221.9050293 C-59.46736801 221.89916306 -60.67521454 221.89329681 -61.91966248 221.88725281 C-65 221.375 -65 221.375 -67.42127991 219.96687317 C-71.36171896 213.49763376 -68.72480149 203.94976607 -67.70239258 196.79150391 C-67.56412048 195.78519424 -67.42584839 194.77888458 -67.28338623 193.74208069 C-66.82789738 190.44415274 -66.36196951 187.1478166 -65.89453125 183.8515625 C-65.57006547 181.54049616 -65.24574227 179.2294098 -64.92155457 176.91830444 C-64.24146357 172.08444729 -63.55542374 167.25147496 -62.8659668 162.41894531 C-61.98730632 156.25257717 -61.12996398 150.08345026 -60.27792835 143.91335487 C-59.61544364 139.1417209 -58.93827477 134.37225306 -58.25711632 129.60325241 C-57.93494492 127.33081073 -57.61800445 125.05762061 -57.30658913 122.78367996 C-54.50465194 102.39792838 -50.10649382 86.44639422 -33.84765625 72.44921875 C-23.8625219 65.1760962 -13.00520333 61.0063399 -0.625 61.125 C0.57382812 61.11339844 0.57382812 61.11339844 1.796875 61.1015625 C10.68218196 61.13031754 18.17823809 62.99985455 26.0625 67.0625 C26.75931885 67.42061768 27.4561377 67.77873535 28.17407227 68.14770508 C41.89457992 75.40582951 49.93609268 87.08636855 55.125 101.5 C56.6376965 106.47028852 57.11223335 110.99773285 57.3125 116.1875 C57.80976773 123.18581208 58.63120609 128.33975004 63.97265625 133.15234375 C71.24297655 138.76012257 76.8095643 139.09126886 86 138.375 C92.67728929 136.56893257 96.67163394 132.35326445 100.11181641 126.4753418 C105.87138058 112.85534989 99.91641604 92.31108785 94.67260742 79.21484375 C89.22932145 66.38457218 81.70302266 55.38576779 72 45.375 C71.4740625 44.77558594 70.948125 44.17617188 70.40625 43.55859375 C60.38452778 32.53981243 46.70357713 26.4048611 33 21.375 C32.13632812 21.03726562 31.27265625 20.69953125 30.3828125 20.3515625 C8.34778599 12.19940984 -18.99821689 14.9253461 -40.10058594 24.30908203 C-54.28933985 30.98290769 -66.40196631 39.7526065 -76.62109375 51.671875 C-79 53.375 -79 53.375 -82.62890625 53.2421875 C-86.40779918 52.27009685 -87.91373022 51.67826049 -90 48.375 C-90.26846056 43.72168364 -89.03254512 41.03053575 -86.125 37.5625 C-84.77421664 36.14321849 -83.39657352 34.74924819 -82 33.375 C-81.20207031 32.57835937 -80.40414062 31.78171875 -79.58203125 30.9609375 C-58.06323303 10.42749045 -29.53035429 -0.03990343 0 0 Z " fill="#000101" transform="translate(345,-0.375)"/>
<path d="M0 0 C5.47600406 4.34287691 10.26656559 9.42897652 15.14282227 14.42138672 C16.25734763 15.55099296 17.37257718 16.67990486 18.48852539 17.80810547 C21.19396893 20.54626901 23.88973442 23.29362745 26.58032227 26.04638672 C30.72137219 22.64501013 34.55919298 19.11298477 38.28735352 15.26123047 C39.53935547 13.97055664 39.53935547 13.97055664 40.81665039 12.65380859 C42.53041764 10.87767529 44.23621625 9.09381759 45.93383789 7.30224609 C54.76153623 -1.74258241 64.15201699 -6.61271626 76.83032227 -7.32861328 C87.79807987 -6.98467663 97.69160106 -2.45167897 105.58032227 5.04638672 C112.12852464 12.85385878 115.43662703 21.94246 115.95532227 32.10888672 C114.38470499 48.60036807 106.15348173 58.05917156 94.76782227 69.10888672 C93.58525325 70.27135449 92.40360435 71.43475906 91.22290039 72.59912109 C88.3525366 75.42579007 85.47001393 78.23948512 82.58032227 81.04638672 C85.98169886 85.18743664 89.51372422 89.02525743 93.36547852 92.75341797 C94.22592773 93.58808594 95.08637695 94.42275391 95.97290039 95.28271484 C97.74903369 96.99648209 99.53289139 98.7022807 101.32446289 100.39990234 C110.40668185 109.26409355 114.85903289 118.24665632 115.89282227 130.85888672 C115.47462076 143.20813126 110.38739412 153.03794374 101.57641602 161.47607422 C93.88405341 167.52760018 86.19975733 169.23503334 76.70532227 169.29638672 C75.5200293 169.32732422 75.5200293 169.32732422 74.31079102 169.35888672 C69.33477262 169.39200498 65.8542958 168.88244978 61.58032227 166.04638672 C59.82937357 162.39223292 59.28748791 160.92488977 60.58032227 157.04638672 C59.99766602 156.78083984 59.41500977 156.51529297 58.81469727 156.24169922 C56.51857998 155.01335676 54.77676209 153.64323733 52.83032227 151.92138672 C52.21672852 151.38255859 51.60313477 150.84373047 50.97094727 150.28857422 C50.51204102 149.87865234 50.05313477 149.46873047 49.58032227 149.04638672 C48.92032227 149.37638672 48.26032227 149.70638672 47.58032227 150.04638672 C44.95532227 150.54638672 44.95532227 150.54638672 41.58032227 150.04638672 C39.47535715 148.5690684 37.66132237 146.93906197 35.80297852 145.16357422 C32.83274506 142.3342833 29.70946059 139.69737818 26.58032227 137.04638672 C25.88583984 137.77229004 25.19135742 138.49819336 24.47583008 139.24609375 C21.85272954 141.97920045 19.20866347 144.6912457 16.55834961 147.39794922 C15.42215093 148.56400562 14.29142955 149.73542881 13.16674805 150.91259766 C3.97109937 160.52585816 -5.4307504 168.94922818 -19.47436523 169.39038086 C-31.16812059 169.54254345 -39.56497047 167.54890444 -48.79467773 159.92138672 C-57.4943059 151.43155666 -60.98602212 142.13453709 -61.41967773 130.04638672 C-60.79050254 114.08106614 -51.40606192 104.31670012 -40.54467773 93.85888672 C-39.36642894 92.70577952 -38.18933636 91.55148964 -37.01342773 90.39599609 C-34.16196819 87.59900263 -31.29542035 84.81839833 -28.41967773 82.04638672 C-31.744214 78.00405285 -35.17009203 74.24988705 -38.95092773 70.62841797 C-39.76174805 69.84789062 -40.57256836 69.06736328 -41.40795898 68.26318359 C-43.07271305 66.66962819 -44.74714217 65.08611472 -46.43139648 63.51318359 C-55.74797627 54.47062086 -60.92918888 44.13136355 -61.41967773 31.04638672 C-60.81645888 19.23212486 -56.47506123 10.09370771 -47.87670898 2.02294922 C-33.9773459 -9.15841441 -14.70906844 -10.18070718 0 0 Z " fill="#DE74A4" transform="translate(367.419677734375,342.95361328125)"/>
<path d="M0 0 C5.47600406 4.34287691 10.26656559 9.42897652 15.14282227 14.42138672 C16.25734763 15.55099296 17.37257718 16.67990486 18.48852539 17.80810547 C21.19396893 20.54626901 23.88973442 23.29362745 26.58032227 26.04638672 C30.72137219 22.64501013 34.55919298 19.11298477 38.28735352 15.26123047 C39.53935547 13.97055664 39.53935547 13.97055664 40.81665039 12.65380859 C42.53041764 10.87767529 44.23621625 9.09381759 45.93383789 7.30224609 C54.76153623 -1.74258241 64.15201699 -6.61271626 76.83032227 -7.32861328 C87.79807987 -6.98467663 97.69160106 -2.45167897 105.58032227 5.04638672 C112.12852464 12.85385878 115.43662703 21.94246 115.95532227 32.10888672 C114.38470499 48.60036807 106.15348173 58.05917156 94.76782227 69.10888672 C93.58525325 70.27135449 92.40360435 71.43475906 91.22290039 72.59912109 C88.3525366 75.42579007 85.47001393 78.23948512 82.58032227 81.04638672 C85.98169886 85.18743664 89.51372422 89.02525743 93.36547852 92.75341797 C94.22592773 93.58808594 95.08637695 94.42275391 95.97290039 95.28271484 C97.74903369 96.99648209 99.53289139 98.7022807 101.32446289 100.39990234 C110.40668185 109.26409355 114.85903289 118.24665632 115.89282227 130.85888672 C115.47462076 143.20813126 110.38739412 153.03794374 101.57641602 161.47607422 C93.88405341 167.52760018 86.19975733 169.23503334 76.70532227 169.29638672 C75.5200293 169.32732422 75.5200293 169.32732422 74.31079102 169.35888672 C69.3293509 169.39204106 65.86689041 168.86876389 61.58032227 166.04638672 C60.01782227 163.17138672 60.01782227 163.17138672 59.58032227 160.04638672 C60.91158674 157.11760488 62.31337192 155.31333707 64.58032227 153.04638672 C67.29218319 153.00516408 69.93757359 153.0584405 72.64282227 153.17138672 C80.40031617 153.31493888 86.42529096 152.85817631 92.37719727 147.39794922 C96.70713585 142.67625428 98.86462424 138.22883285 98.89282227 131.73388672 C98.91795898 130.409375 98.91795898 130.409375 98.94360352 129.05810547 C97.94552162 120.78368463 94.40495904 116.16086539 88.57641602 110.58935547 C87.89732681 109.91971268 87.21823761 109.25006989 86.51856995 108.56013489 C84.36323165 106.43917422 82.19141183 104.33612411 80.01782227 102.23388672 C77.84428729 100.11036782 75.67430235 97.98331061 73.50636292 95.8540802 C72.16039052 94.53445298 70.81053718 93.21876987 69.45640564 91.90751648 C68.84559647 91.3129213 68.23478729 90.71832611 67.60546875 90.10571289 C67.06824692 89.58579269 66.53102509 89.0658725 65.9775238 88.53019714 C63.48777827 85.88611877 62.58652446 84.48168876 62.53417969 80.80786133 C63.94392654 75.73902358 66.54437057 73.38832087 70.31860352 69.86279297 C70.99577927 69.2035936 71.67295502 68.54439423 72.37065125 67.86521912 C74.53087516 65.76486807 76.70975359 63.68546424 78.89282227 61.60888672 C81.06344975 59.53430256 83.22910473 57.45536927 85.38285828 55.36326599 C86.72046584 54.06478048 88.06781809 52.77623082 89.42634583 51.49964905 C94.45814149 46.62822377 97.96058384 41.70498045 99.14672852 34.70263672 C99.13644246 26.3915032 97.86892803 21.53045173 92.12329102 15.52294922 C86.47408251 10.3656243 80.87020666 9.82275465 73.55688477 9.58544922 C65.69601605 10.8027491 60.53685927 15.57168299 55.26391602 21.18310547 C53.90932554 22.57850838 52.55450088 23.97368399 51.19946289 25.36865234 C49.0990057 27.55626952 47.00378934 29.74863928 44.91357422 31.94604492 C42.87661981 34.07964576 40.82149517 36.19441609 38.76391602 38.30810547 C38.14705429 38.96848312 37.53019257 39.62886078 36.89463806 40.30924988 C33.91570718 43.3551684 32.06303308 44.89455053 27.92382812 46.1965332 C23.84351786 46.01329912 22.76202217 45.23495929 19.90063477 42.38232422 C19.04888672 41.55055664 18.19713867 40.71878906 17.31958008 39.86181641 C16.415625 38.93272461 15.51166992 38.00363281 14.58032227 37.04638672 C13.60797778 36.06300877 12.63498094 35.0802755 11.66137695 34.09814453 C8.04702281 30.43243554 4.44563068 26.75348873 0.88842773 23.03222656 C-8.03165989 13.69622284 -8.03165989 13.69622284 -20.10717773 9.64794922 C-26.7206687 9.71497784 -32.3537423 10.25257573 -37.40014648 14.85107422 C-41.99681196 19.87423443 -44.68260644 24.28184144 -44.85717773 31.23388672 C-44.89713867 32.09369141 -44.93709961 32.95349609 -44.97827148 33.83935547 C-42.65826723 47.1591002 -31.36131257 55.43181249 -22.0378418 64.25024414 C-19.98069311 66.20482097 -17.94207711 68.17737586 -15.90405273 70.15185547 C-14.9510025 71.03492622 -14.9510025 71.03492622 -13.97869873 71.93583679 C-10.94246871 74.88586677 -9.55193863 76.58897818 -8.34912109 80.7487793 C-8.42553408 84.32009499 -8.6030024 85.23381479 -11.06420898 87.70263672 C-11.71341309 88.37166016 -12.36261719 89.04068359 -13.03149414 89.72998047 C-13.81959473 90.49439453 -14.60769531 91.25880859 -15.41967773 92.04638672 C-16.37427225 92.99461867 -17.32782134 93.94390382 -18.28051758 94.89404297 C-22.10313499 98.68780333 -25.94659522 102.46058295 -29.82128906 106.20117188 C-39.79559911 115.51723059 -39.79559911 115.51723059 -44.98608398 127.88232422 C-44.97531283 134.88357776 -43.59292092 140.33563289 -39.41967773 146.04638672 C-34.55308263 150.70468398 -30.15981848 153.16689944 -23.35717773 153.42138672 C-22.04040039 153.49486328 -22.04040039 153.49486328 -20.69702148 153.56982422 C-7.34978715 151.43808477 0.99188628 139.96038636 9.78417969 130.66455078 C11.73875652 128.6074021 13.71131141 126.56878609 15.68579102 124.53076172 C16.27450485 123.8953949 16.86321869 123.26002808 17.46977234 122.60540771 C20.49124507 119.49564737 22.07207531 118.17501189 26.38989258 117.08227539 C29.58032227 117.04638672 29.58032227 117.04638672 31.52172852 117.98779297 C32.05668945 118.52275391 32.59165039 119.05771484 33.14282227 119.60888672 C33.79379883 120.25083984 34.44477539 120.89279297 35.11547852 121.55419922 C36.33557617 122.78783203 36.33557617 122.78783203 37.58032227 124.04638672 C38.78408804 125.15151673 39.99141712 126.25277232 41.20141602 127.35107422 C42.49581805 128.56047953 43.78877645 129.77143168 45.08032227 130.98388672 C46.03467163 131.84252319 46.03467163 131.84252319 47.00830078 132.71850586 C50.17525488 135.77838366 51.98643376 137.80841627 52.08813477 142.33154297 C51.58032227 146.04638672 51.58032227 146.04638672 49.95532227 148.54638672 C46.69865654 150.60322823 45.38428696 150.85107156 41.58032227 150.04638672 C39.48766014 148.55893441 37.65859338 146.93645467 35.80297852 145.16357422 C32.83274506 142.3342833 29.70946059 139.69737818 26.58032227 137.04638672 C25.88583984 137.77229004 25.19135742 138.49819336 24.47583008 139.24609375 C21.85272954 141.97920045 19.20866347 144.6912457 16.55834961 147.39794922 C15.42215093 148.56400562 14.29142955 149.73542881 13.16674805 150.91259766 C3.97109937 160.52585816 -5.4307504 168.94922818 -19.47436523 169.39038086 C-31.16812059 169.54254345 -39.56497047 167.54890444 -48.79467773 159.92138672 C-57.4943059 151.43155666 -60.98602212 142.13453709 -61.41967773 130.04638672 C-60.79050254 114.08106614 -51.40606192 104.31670012 -40.54467773 93.85888672 C-39.36642894 92.70577952 -38.18933636 91.55148964 -37.01342773 90.39599609 C-34.16196819 87.59900263 -31.29542035 84.81839833 -28.41967773 82.04638672 C-31.744214 78.00405285 -35.17009203 74.24988705 -38.95092773 70.62841797 C-39.76174805 69.84789062 -40.57256836 69.06736328 -41.40795898 68.26318359 C-43.07271305 66.66962819 -44.74714217 65.08611472 -46.43139648 63.51318359 C-55.74797627 54.47062086 -60.92918888 44.13136355 -61.41967773 31.04638672 C-60.81645888 19.23212486 -56.47506123 10.09370771 -47.87670898 2.02294922 C-33.9773459 -9.15841441 -14.70906844 -10.18070718 0 0 Z " fill="#010001" transform="translate(367.419677734375,342.95361328125)"/>
<path d="M0 0 C-0.39832031 0.47308594 -0.79664063 0.94617188 -1.20703125 1.43359375 C-7.38001086 9.13855371 -9.64593835 16.10245919 -9.34375 26.01171875 C-7.98116693 37.85690109 -0.1632474 44.96278696 7.96875 52.890625 C8.76205971 53.66530121 8.76205971 53.66530121 9.57139587 54.45562744 C11.77621196 56.60548109 13.98193855 58.75388276 16.20605469 60.88378906 C17.84667772 62.45814342 19.4711938 64.04768578 21.09375 65.640625 C21.60192261 66.11985413 22.11009521 66.59908325 22.63366699 67.09283447 C24.02148438 68.46972656 24.02148438 68.46972656 26 71 C25.66507144 74.19058061 24.55381816 75.81022218 22.2878418 78.00512695 C21.72022629 78.56283279 21.15261078 79.12053864 20.5677948 79.69514465 C19.64284966 80.58274727 19.64284966 80.58274727 18.69921875 81.48828125 C18.06643509 82.10970505 17.43365143 82.73112885 16.7816925 83.37138367 C14.07789674 86.02624233 11.35688706 88.66319694 8.63696289 91.30151367 C6.65144656 93.23246839 4.67521773 95.17259564 2.69921875 97.11328125 C2.08866135 97.69894363 1.47810394 98.28460602 0.8490448 98.88801575 C-6.21579759 105.83153837 -9.08419521 112.30071749 -9.3125 122.25 C-9.22769063 131.64263755 -5.58208958 137.71227194 0 145 C-7.22291835 145.47798724 -13.03960111 145.44415706 -19 141 C-24.87649421 135.60430986 -28.09301147 129.6190865 -28.4375 121.5625 C-28.56984159 115.64241973 -26.20877128 110.64536184 -22.44789124 106.14109802 C-20.63087725 104.2694281 -18.76424293 102.46989003 -16.86328125 100.68359375 C-15.46787834 99.32900327 -14.07270273 97.97417861 -12.67773438 96.61914062 C-10.4901172 94.51868343 -8.29774744 92.42346708 -6.1003418 90.33325195 C-3.96674096 88.29629754 -1.85197063 86.24117291 0.26171875 84.18359375 C0.92209641 83.56673203 1.58247406 82.9498703 2.26286316 82.3143158 C5.35050234 79.29458181 6.84995154 77.51246648 8.08862305 73.28198242 C7.99221214 69.71159171 7.78369085 68.77813514 5.3203125 66.3046875 C4.67094727 65.6353418 4.02158203 64.96599609 3.35253906 64.27636719 C2.57620117 63.52516602 1.79986328 62.77396484 1 62 C0.09217773 61.1018457 -0.81564453 60.20369141 -1.75097656 59.27832031 C-5.39615341 55.68579986 -9.05326803 52.10479304 -12.75341797 48.56884766 C-19.98514847 41.64271398 -26.56610282 35.07151779 -28.62890625 24.8984375 C-28.43685151 17.60035727 -27.20370239 12.44909236 -22.1640625 7.0234375 C-15.16825674 0.5101011 -9.30870619 -0.33113975 0 0 Z " fill="#DA568E" transform="translate(350,352)"/>
<path d="M0 0 C0 0.66 0 1.32 0 2 C-0.99 2 -1.98 2 -3 2 C-3.33 2.99 -3.66 3.98 -4 5 C-5.49609375 6.4375 -5.49609375 6.4375 -7.4375 8 C-19.40910962 18.23690411 -27.40785925 30.36093819 -34.25 44.375 C-34.56727051 45.00937988 -34.88454102 45.64375977 -35.21142578 46.29736328 C-42.17374343 61.10372141 -43.64171162 77.78737839 -45.85546875 93.7890625 C-46.20523766 96.26683253 -46.55586384 98.74448168 -46.90730286 101.22201538 C-47.82399354 107.6993945 -48.72997268 114.1782248 -49.63336182 120.6574707 C-50.73498211 128.55214764 -51.85054778 136.44487277 -52.96415424 144.33786583 C-53.82951806 150.47213072 -54.69284869 156.60665669 -55.54985046 162.74209595 C-55.70741821 163.86659149 -55.86498596 164.99108704 -56.02732849 166.1496582 C-56.32092986 168.24522872 -56.61343827 170.34095278 -56.90463257 172.43685913 C-57.03485306 173.36444031 -57.16507355 174.29202148 -57.29924011 175.24771118 C-57.41111255 176.04954645 -57.52298498 176.85138172 -57.63824749 177.67751503 C-58.02108615 180.13537506 -58.49563168 182.56442745 -59 185 C-61.97 185.33 -64.94 185.66 -68 186 C-66.58010572 172.40092785 -64.79947598 158.86928074 -62.8828125 145.33203125 C-62.66136881 143.76308892 -62.66136881 143.76308892 -62.43545151 142.16245079 C-61.65582448 136.63984594 -60.87299829 131.11770608 -60.08740234 125.59594727 C-59.28371143 119.94249925 -58.49112226 114.28755257 -57.70102119 108.63219166 C-57.08429222 104.23260458 -56.45931644 99.83421636 -55.83218002 95.43610191 C-55.53654315 93.35282931 -55.24390991 91.26912788 -54.95453262 89.18497658 C-51.00363456 60.78501989 -51.00363456 60.78501989 -45.75 50.125 C-43.56147761 45.63681931 -43.68616999 41.94282261 -44 37 C-45.485 36.505 -45.485 36.505 -47 36 C-45.35821735 31.22390502 -42.73453298 27.20617096 -40 23 C-38.7625 23.4125 -37.525 23.825 -36.25 24.25 C-33.69247051 24.66312787 -33.69247051 24.66312787 -31 24 C-28.35551186 21.8603002 -26.16967807 19.62284099 -23.88818359 17.11694336 C-19.90116107 12.7713031 -15.66809538 9.24419518 -10.875 5.8125 C-10.22321777 5.34360352 -9.57143555 4.87470703 -8.89990234 4.39160156 C-2.71203422 0 -2.71203422 0 0 0 Z " fill="#7DB0F5" transform="translate(297,28)"/>
<path d="M0 0 C0.495 0.99 0.495 0.99 1 2 C3.64 2 6.28 2 9 2 C7.55216023 16.08306455 5.62949318 30.07708371 3.59375 44.0859375 C3.26487772 46.36313784 2.93622809 48.64037033 2.60778809 50.91763306 C1.92375973 55.65612637 1.23780657 60.39433536 0.55029297 65.13232422 C-0.32676257 71.17689339 -1.2000752 77.22199575 -2.07209015 83.26729393 C-2.74876454 87.95683351 -3.42684182 92.64616934 -4.10539246 97.33543777 C-4.42780399 99.56392804 -4.74992294 101.79246065 -5.07173157 104.02103806 C-11.62702649 149.38397301 -11.62702649 149.38397301 -27 162 C-30.21264841 164.22711416 -33.4341404 166.38330314 -37 168 C-37.66 167.67 -38.32 167.34 -39 167 C-38.41992188 166.46632813 -37.83984375 165.93265625 -37.2421875 165.3828125 C-26.78190573 155.40584408 -20.21112662 143.6547625 -18.28125 129.296875 C-18.14178955 128.3409848 -18.0023291 127.3850946 -17.85864258 126.40023804 C-17.39303401 123.18517779 -16.94653719 119.96776017 -16.5 116.75 C-16.17101388 114.4502016 -15.84089925 112.1505644 -15.50976562 109.85107422 C-14.65705138 103.90388191 -13.81813971 97.95486396 -12.98407745 92.00503731 C-12.14864057 86.04910853 -11.30598876 80.09422023 -10.4609375 74.13964844 C-10.3269883 73.19573242 -10.19303909 72.25181641 -10.05503082 71.27929688 C-9.77972197 69.33934924 -9.50440502 67.39940276 -9.2290802 65.4594574 C-6.133535 43.64233238 -3.06143834 21.82193436 0 0 Z " fill="#7DB0F5" transform="translate(220,272)"/>
<path d="M0 0 C-1.02870775 2.10627312 -2.09202164 4.15812243 -3.27148438 6.18481445 C-6.89478892 12.66809443 -7.73854898 17.82416386 -7.5 25.1875 C-7.479375 26.19852783 -7.45875 27.20955566 -7.4375 28.2512207 C-6.52469689 58.05757022 7.69425303 83.01072265 28.484375 103.65234375 C30.57965174 105.60771847 32.66458121 107.34665445 35 109 C34.67 109.66 34.34 110.32 34 111 C7.90157438 94.85044231 -8.49402665 71.84378517 -15.9375 42 C-16.99520744 36.38092922 -17.33225382 30.82923273 -17.4375 25.125 C-17.45997803 24.33996094 -17.48245605 23.55492187 -17.50561523 22.74609375 C-17.47822145 16.12663127 -15.6179689 10.97392081 -11.21875 5.9765625 C-10.6515625 5.53054688 -10.084375 5.08453125 -9.5 4.625 C-8.9328125 4.16351563 -8.365625 3.70203125 -7.78125 3.2265625 C-3.0955414 0 -3.0955414 0 0 0 Z " fill="#7DB0F5" transform="translate(62,373)"/>
<path d="M0 0 C7.20690713 0.4504317 12.5084766 6.27081284 17.1875 11.25 C24.90217949 20.25298549 27.90513212 30.18191775 28.8125 41.8125 C29.49323729 49.14087578 31.05257403 54.69930086 35 61 C35.67949091 62.32684374 36.35023237 63.65835018 37 65 C30.78254431 63.48354739 26.57246145 60.33180248 22.703125 55.3203125 C19.5671918 50.02558471 19.6164775 44.74506396 19.3203125 38.71875 C18.03179636 23.75939185 10.83269837 10.26255635 0 0 Z " fill="#7DB0F6" transform="translate(382,74)"/>
<path d="M0 0 C-0.39832031 0.4125 -0.79664063 0.825 -1.20703125 1.25 C-8.05806203 8.71779024 -9.67499957 15.22502495 -9.5 25.375 C-8.68526189 31.28185128 -6.05495295 35.95636577 -3 41 C-2.67 41.66 -2.34 42.32 -2 43 C-6.35464467 42.68895395 -9.29043915 41.69429218 -12.54296875 38.69921875 C-17.63275358 32.7634107 -19.8377108 26.38524785 -19.41015625 18.6015625 C-18.26353974 11.32873777 -14.57299484 6.98830864 -8.96484375 2.4140625 C-3.31051345 -1.65525672 -3.31051345 -1.65525672 0 0 Z " fill="#7CAEF3" transform="translate(161,222)"/>
</svg>
